<svg width="1200" height="843" viewBox="0 0 1200 843" fill="none" xmlns="http://www.w3.org/2000/svg">
<g style="mix-blend-mode:multiply" opacity="0.6" filter="url(#filter0_dd)">
<rect x="12" y="6" width="1176" height="819" fill="white"/>
</g>
<g filter="url(#filter1_b)">
<rect x="12" y="6" width="1176" height="819" fill="white"/>
</g>
<rect x="12" y="126" width="1176" height="3" fill="black" fill-opacity="0.1"/>
<rect x="1068" y="6" width="120" height="120" fill="white"/>
<path d="M1112.25 66.375C1112.62 66.375 1112.96 66.4434 1113.28 66.5801C1113.59 66.7168 1113.86 66.9082 1114.1 67.1543C1114.34 67.3867 1114.53 67.6602 1114.67 67.9746C1114.81 68.2891 1114.88 68.6309 1114.88 69C1114.88 69.3691 1114.81 69.7109 1114.67 70.0254C1114.53 70.3398 1114.34 70.6201 1114.1 70.8662C1113.86 71.0986 1113.59 71.2832 1113.28 71.4199C1112.96 71.5566 1112.62 71.625 1112.25 71.625C1111.88 71.625 1111.54 71.5566 1111.22 71.4199C1110.91 71.2832 1110.63 71.0986 1110.38 70.8662C1110.15 70.6201 1109.97 70.3398 1109.83 70.0254C1109.69 69.7109 1109.62 69.3691 1109.62 69C1109.62 68.6309 1109.69 68.2891 1109.83 67.9746C1109.97 67.6602 1110.15 67.3867 1110.38 67.1543C1110.63 66.9082 1110.91 66.7168 1111.22 66.5801C1111.54 66.4434 1111.88 66.375 1112.25 66.375ZM1128 66.375C1128.37 66.375 1128.71 66.4434 1129.03 66.5801C1129.34 66.7168 1129.61 66.9082 1129.85 67.1543C1130.09 67.3867 1130.28 67.6602 1130.42 67.9746C1130.56 68.2891 1130.62 68.6309 1130.62 69C1130.62 69.3691 1130.56 69.7109 1130.42 70.0254C1130.28 70.3398 1130.09 70.6201 1129.85 70.8662C1129.61 71.0986 1129.34 71.2832 1129.03 71.4199C1128.71 71.5566 1128.37 71.625 1128 71.625C1127.63 71.625 1127.29 71.5566 1126.97 71.4199C1126.66 71.2832 1126.38 71.0986 1126.13 70.8662C1125.9 70.6201 1125.72 70.3398 1125.58 70.0254C1125.44 69.7109 1125.38 69.3691 1125.38 69C1125.38 68.6309 1125.44 68.2891 1125.58 67.9746C1125.72 67.6602 1125.9 67.3867 1126.13 67.1543C1126.38 66.9082 1126.66 66.7168 1126.97 66.5801C1127.29 66.4434 1127.63 66.375 1128 66.375ZM1143.75 66.375C1144.12 66.375 1144.46 66.4434 1144.78 66.5801C1145.09 66.7168 1145.36 66.9082 1145.6 67.1543C1145.84 67.3867 1146.03 67.6602 1146.17 67.9746C1146.31 68.2891 1146.38 68.6309 1146.38 69C1146.38 69.3691 1146.31 69.7109 1146.17 70.0254C1146.03 70.3398 1145.84 70.6201 1145.6 70.8662C1145.36 71.0986 1145.09 71.2832 1144.78 71.4199C1144.46 71.5566 1144.12 71.625 1143.75 71.625C1143.38 71.625 1143.04 71.5566 1142.72 71.4199C1142.41 71.2832 1142.13 71.0986 1141.88 70.8662C1141.65 70.6201 1141.47 70.3398 1141.33 70.0254C1141.19 69.7109 1141.12 69.3691 1141.12 69C1141.12 68.6309 1141.19 68.2891 1141.33 67.9746C1141.47 67.6602 1141.65 67.3867 1141.88 67.1543C1142.13 66.9082 1142.41 66.7168 1142.72 66.5801C1143.04 66.4434 1143.38 66.375 1143.75 66.375Z" fill="black"/>
<g clip-path="url(#clip0)">
<path d="M91.0342 85.418C88.1865 86.8945 84.6445 87.6328 80.4082 87.6328C74.9238 87.6328 70.5293 85.9014 67.2246 82.4385C63.9199 78.9756 62.2676 74.4316 62.2676 68.8066C62.2676 62.7598 64.1221 57.873 67.8311 54.1465C71.5576 50.4199 76.2598 48.5566 81.9375 48.5566C85.5938 48.5566 88.626 49.0752 91.0342 50.1123V56.335C88.4854 54.8232 85.6729 54.0674 82.5967 54.0674C78.501 54.0674 75.1787 55.377 72.6299 57.9961C70.0986 60.6152 68.833 64.1133 68.833 68.4902C68.833 72.6562 70.0195 75.9785 72.3926 78.457C74.7656 80.918 77.8857 82.1484 81.7529 82.1484C85.3213 82.1484 88.415 81.3047 91.0342 79.6172V85.418ZM118.245 87H112.312V82.7812H112.207C110.344 86.0156 107.61 87.6328 104.007 87.6328C101.353 87.6328 99.2695 86.9121 97.7578 85.4707C96.2637 84.0293 95.5166 82.1221 95.5166 79.749C95.5166 74.6514 98.4521 71.6807 104.323 70.8369L112.339 69.7031C112.339 65.8535 110.511 63.9287 106.854 63.9287C103.638 63.9287 100.737 65.0361 98.1533 67.251V61.8984C101.001 60.2109 104.288 59.3672 108.015 59.3672C114.835 59.3672 118.245 62.7246 118.245 69.4395V87ZM112.339 73.7373L106.67 74.5283C104.912 74.7568 103.585 75.1875 102.688 75.8203C101.81 76.4355 101.37 77.5254 101.37 79.0898C101.37 80.2324 101.774 81.1729 102.583 81.9111C103.409 82.6318 104.508 82.9922 105.879 82.9922C107.742 82.9922 109.28 82.3418 110.493 81.041C111.724 79.7227 112.339 78.0703 112.339 76.084V73.7373ZM141.396 65.8271C140.657 65.2471 139.594 64.957 138.205 64.957C136.395 64.957 134.883 65.7744 133.67 67.4092C132.457 69.0439 131.851 71.2676 131.851 74.0801V87H125.733V60H131.851V65.5635H131.956C132.554 63.665 133.468 62.1885 134.698 61.1338C135.946 60.0615 137.335 59.5254 138.864 59.5254C139.972 59.5254 140.815 59.6924 141.396 60.0264V65.8271ZM169.793 87H163.676V82.4121H163.57C161.602 85.8926 158.569 87.6328 154.474 87.6328C151.151 87.6328 148.488 86.4287 146.484 84.0205C144.498 81.5947 143.505 78.2988 143.505 74.1328C143.505 69.668 144.604 66.0908 146.801 63.4014C149.016 60.7119 151.96 59.3672 155.634 59.3672C159.272 59.3672 161.918 60.8262 163.57 63.7441H163.676V47.0273H169.793V87ZM163.755 74.6602V71.127C163.755 69.2109 163.131 67.585 161.883 66.249C160.635 64.9131 159.044 64.2451 157.11 64.2451C154.825 64.2451 153.023 65.0977 151.705 66.8027C150.404 68.5078 149.754 70.8721 149.754 73.8955C149.754 76.6377 150.378 78.8086 151.626 80.4082C152.892 81.9902 154.588 82.7812 156.715 82.7812C158.807 82.7812 160.503 82.0166 161.804 80.4873C163.104 78.9404 163.755 76.998 163.755 74.6602ZM206.892 86.71C205.696 87.3076 204.123 87.6064 202.172 87.6064C196.934 87.6064 194.314 85.0928 194.314 80.0654V64.7988H189.806V60H194.314V53.751L200.432 52.0107V60H206.892V64.7988H200.432V78.2988C200.432 79.8984 200.722 81.041 201.302 81.7266C201.882 82.4121 202.849 82.7549 204.202 82.7549C205.239 82.7549 206.136 82.4561 206.892 81.8584V86.71ZM215.25 54.3311C214.248 54.3311 213.387 54.0059 212.666 53.3555C211.963 52.7051 211.611 51.8789 211.611 50.877C211.611 49.875 211.963 49.04 212.666 48.3721C213.387 47.7041 214.248 47.3701 215.25 47.3701C216.287 47.3701 217.166 47.7041 217.887 48.3721C218.607 49.04 218.968 49.875 218.968 50.877C218.968 51.8262 218.607 52.6436 217.887 53.3291C217.166 53.9971 216.287 54.3311 215.25 54.3311ZM218.282 87H212.165V60H218.282V87ZM240.536 86.71C239.341 87.3076 237.768 87.6064 235.816 87.6064C230.578 87.6064 227.959 85.0928 227.959 80.0654V64.7988H223.45V60H227.959V53.751L234.076 52.0107V60H240.536V64.7988H234.076V78.2988C234.076 79.8984 234.366 81.041 234.946 81.7266C235.526 82.4121 236.493 82.7549 237.847 82.7549C238.884 82.7549 239.78 82.4561 240.536 81.8584V86.71ZM251.953 87H245.81V47.0273H251.953V87ZM282.803 75.1611H264.398C264.469 77.6572 265.233 79.582 266.692 80.9355C268.169 82.2891 270.19 82.9658 272.757 82.9658C275.64 82.9658 278.285 82.1045 280.693 80.3818V85.3125C278.232 86.8594 274.98 87.6328 270.938 87.6328C266.965 87.6328 263.845 86.4111 261.577 83.9678C259.327 81.5068 258.202 78.0527 258.202 73.6055C258.202 69.4043 259.441 65.9854 261.92 63.3486C264.416 60.6943 267.51 59.3672 271.201 59.3672C274.893 59.3672 277.749 60.5537 279.771 62.9268C281.792 65.2998 282.803 68.5957 282.803 72.8145V75.1611ZM276.896 70.8369C276.879 68.6396 276.36 66.9346 275.341 65.7217C274.321 64.4912 272.915 63.876 271.122 63.876C269.364 63.876 267.87 64.5176 266.64 65.8008C265.427 67.084 264.68 68.7627 264.398 70.8369H276.896Z" fill="black"/>
</g>
<defs>
<filter id="filter0_dd" x="1.2" y="3.57628e-07" width="1197.6" height="840.6" filterUnits="userSpaceOnUse" color-interpolation-filters="sRGB">
<feFlood flood-opacity="0" result="BackgroundImageFix"/>
<feColorMatrix in="SourceAlpha" type="matrix" values="0 0 0 0 0 0 0 0 0 0 0 0 0 0 0 0 0 0 127 0"/>
<feOffset dy="0.3"/>
<feGaussianBlur stdDeviation="0.45"/>
<feColorMatrix type="matrix" values="0 0 0 0 0 0 0 0 0 0 0 0 0 0 0 0 0 0 0.18 0"/>
<feBlend mode="normal" in2="BackgroundImageFix" result="effect1_dropShadow"/>
<feColorMatrix in="SourceAlpha" type="matrix" values="0 0 0 0 0 0 0 0 0 0 0 0 0 0 0 0 0 0 127 0"/>
<feOffset dy="1.6"/>
<feGaussianBlur stdDeviation="1.8"/>
<feColorMatrix type="matrix" values="0 0 0 0 0 0 0 0 0 0 0 0 0 0 0 0 0 0 0.22 0"/>
<feBlend mode="normal" in2="effect1_dropShadow" result="effect2_dropShadow"/>
<feBlend mode="normal" in="SourceGraphic" in2="effect2_dropShadow" result="shape"/>
</filter>
<filter id="filter1_b" x="-168" y="-174" width="1536" height="1179" filterUnits="userSpaceOnUse" color-interpolation-filters="sRGB">
<feFlood flood-opacity="0" result="BackgroundImageFix"/>
<feGaussianBlur in="BackgroundImage" stdDeviation="30"/>
<feComposite in2="SourceAlpha" operator="in" result="effect1_backgroundBlur"/>
<feBlend mode="normal" in="SourceGraphic" in2="effect1_backgroundBlur" result="shape"/>
</filter>
<clipPath id="clip0">
<rect width="272" height="24" fill="white" transform="translate(60 30) scale(3)"/>
</clipPath>
</defs>
</svg>
