<svg xmlns="http://www.w3.org/2000/svg" viewBox="0 0 128.5 134.26"><defs><style>.cls-1{fill:#0078d7;}.cls-2{fill:#ffd590;}.cls-3{fill:#0064c1;}.cls-4{fill:#b1e8fa;}.cls-5{fill:#7bddef;fill-rule:evenodd;}.cls-6{fill:#f7b548;}.cls-7{fill:#e1dfdd;}.cls-8{fill:#ffe5b9;}.cls-9{fill:none;stroke:#fff;stroke-linecap:round;stroke-linejoin:round;stroke-width:6px;}</style></defs><title>Asset 5</title><g id="Layer_2" data-name="Layer 2"><g id="Layer_3" data-name="Layer 3"><path class="cls-1" d="M26.91,48.1,109,29.18a2.66,2.66,0,0,1,3.19,2l.5,2.17-5-21.62a6.64,6.64,0,0,0-8-5L88.41,9.34l2.1,9.1a3.89,3.89,0,0,1-7.59,1.75l-2.1-9.1L44.68,19.42l2.1,9.12a3.89,3.89,0,0,1-7.58,1.75l-2.1-9.12L25.42,23.86a6.64,6.64,0,0,0-5,8l4.48,19.46A2.68,2.68,0,0,1,26.91,48.1Z"/><path class="cls-2" d="M87,3a3.89,3.89,0,1,0-7.58,1.75l1.45,6.31,7.59-1.75Z"/><path class="cls-3" d="M87.59,23.11a3.9,3.9,0,0,0,2.92-4.67l-2.1-9.1-7.59,1.75,2.1,9.1A3.88,3.88,0,0,0,87.59,23.11Z"/><path class="cls-2" d="M43.22,13.1a3.89,3.89,0,1,0-7.58,1.75l1.46,6.32,7.58-1.75Z"/><path class="cls-3" d="M43.87,33.2a3.88,3.88,0,0,0,2.91-4.66l-2.1-9.12L37.1,21.17l2.1,9.12A3.89,3.89,0,0,0,43.87,33.2Z"/><path class="cls-4" d="M124,82.75,112.65,33.34l.07.31a2.66,2.66,0,0,1-2,3.18L28.68,55.75a2.66,2.66,0,0,1-3.19-2l-.57-2.47h0l11.9,51.58a6.65,6.65,0,0,0,8,5l74.27-17.13A6.65,6.65,0,0,0,124,82.75Z"/><path class="cls-3" d="M28.68,55.75l82.05-18.92a2.66,2.66,0,0,0,2-3.18l-.07-.31-.5-2.17a2.66,2.66,0,0,0-3.19-2l-82,18.92a2.68,2.68,0,0,0-2,3.19l.57,2.47A2.66,2.66,0,0,0,28.68,55.75Z"/><path class="cls-5" d="M97.34,75.18a4,4,0,0,1,3-4.78l7.08-1.64a4,4,0,0,1,4.78,3l1.62,7a4,4,0,0,1-3,4.78l-7.08,1.63a4,4,0,0,1-4.78-3Z"/><path class="cls-6" d="M9.2,5.26A12.3,12.3,0,0,1,5,11.11a.64.64,0,0,0,0,1,14.59,14.59,0,0,1,4.23,6.35.66.66,0,0,0,1.27,0,14.59,14.59,0,0,1,4.23-6.35.64.64,0,0,0,0-1,12.3,12.3,0,0,1-4.22-5.86A.64.64,0,0,0,9.2,5.26Z"/><circle class="cls-7" cx="3.25" cy="51.34" r="3.25"/><circle class="cls-8" cx="125.25" cy="4.34" r="3.25"/><circle class="cls-2" cx="40.32" cy="110.26" r="24"/><path class="cls-6" d="M40.32,86.26a24.14,24.14,0,0,0-7.09,1.06l3.59,15.55a6.65,6.65,0,0,0,8,5l18.58-4.29A24,24,0,0,0,40.32,86.26Z"/><polyline class="cls-9" points="27.71 110.43 35.93 118.65 53.33 101.26"/></g></g></svg>