<svg xmlns="http://www.w3.org/2000/svg" xmlns:xlink="http://www.w3.org/1999/xlink" viewBox="0 0 130.92 122"><defs><style>.cls-1{fill:#f3f2f1;}.cls-2{fill:#797673;}.cls-3{fill:#e1dfdd;}.cls-12,.cls-4{fill:#fff;}.cls-5{fill:#0078d7;}.cls-6{fill:#ffd590;}.cls-7{fill:#c8c6c4;}.cls-8{fill:#c3c3e1;}.cls-9{fill:url(#linear-gradient);}.cls-10{fill:#b3afab;}.cls-11{fill:#605d5a;}.cls-12{stroke:#f7b548;stroke-linecap:round;stroke-linejoin:round;stroke-width:5px;}</style><linearGradient id="linear-gradient" x1="-2270.31" y1="-1177.38" x2="-2270.31" y2="-1199.26" gradientTransform="matrix(-0.99, -0.15, -0.22, 0.97, -2420.75, 837.58)" gradientUnits="userSpaceOnUse"><stop offset="0" stop-color="#0064c1"/><stop offset="1" stop-color="#0078d7"/></linearGradient></defs><title>Asset 4</title><g id="Layer_2" data-name="Layer 2"><g id="Layer_3" data-name="Layer 3"><path class="cls-1" d="M11.89,103.89a63.32,63.32,0,0,1,10.37.81,55.87,55.87,0,0,1,8.53,2.1l13-56.89C41,59.52,37.34,70,32.71,77c-2.27,3.43-4.26,6.1-6,8.32C20.17,93.32,16.27,95.21,11.89,103.89Z"/><path class="cls-1" d="M11.89,103.89c.35,0,.73,0,1.12,0l1.25,0c.75,0,1.55.06,2.4.13s1.64.11,2.52.22c.49,0,1,.12,1.52.19s.93.12,1.42.21l.14,0,4.4-19.33,0,0c-.38.48-.77.94-1.14,1.38C19.68,93.59,16,95.76,11.89,103.89Z"/><path class="cls-2" d="M24.33,110l81.16,12a3,3,0,0,0,3.31-2.26l22.06-96.9a2.36,2.36,0,0,0-2-2.89l-81.18-12a3,3,0,0,0-3.29,2.26L22.35,107.1A2.36,2.36,0,0,0,24.33,110Z"/><polygon class="cls-3" points="31.76 103.95 101.35 114.22 121.45 25.96 51.86 15.69 31.76 103.95"/><path class="cls-4" d="M16,90.18a54.23,54.23,0,0,1,27.62,7c29.2,17,50.55,11.25,57.13,0C110.41,80.67,121.44,26,121.44,26L51.86,15.69S46.34,48.78,36.11,64.27C26.07,79.47,21.41,79.47,16,90.18Z"/><path class="cls-5" d="M72.9,72.31l1.46-6.49a1,1,0,0,0-.82-1.19l-9.12-1.37a1,1,0,0,0-1.11.76l-1.46,6.49a1,1,0,0,0,.82,1.19l9.12,1.37A1,1,0,0,0,72.9,72.31Z"/><path class="cls-3" d="M61.62,58l1.45-6.49a1,1,0,0,0-.82-1.19l-9.11-1.37a1,1,0,0,0-1.12.76l-1.45,6.48a1,1,0,0,0,.82,1.2l9.11,1.37A1,1,0,0,0,61.62,58Z"/><path class="cls-3" d="M58.86,70.2l1.46-6.48a1,1,0,0,0-.82-1.2l-9.12-1.37a1,1,0,0,0-1.11.76L47.81,68.4a1,1,0,0,0,.82,1.2L57.75,71A1,1,0,0,0,58.86,70.2Z"/><path class="cls-3" d="M64.37,45.56l1.46-6.48a1,1,0,0,0-.82-1.2l-9.12-1.37a1,1,0,0,0-1.11.77l-1.46,6.48a1,1,0,0,0,.82,1.2l9.12,1.37A1,1,0,0,0,64.37,45.56Z"/><path class="cls-3" d="M75.66,60.06l1.45-6.48a1,1,0,0,0-.82-1.2L67.18,51a1,1,0,0,0-1.12.77l-1.45,6.48a1,1,0,0,0,.82,1.2l9.11,1.37A1,1,0,0,0,75.66,60.06Z"/><path class="cls-3" d="M86.94,74.42l1.46-6.49a1,1,0,0,0-.82-1.19l-9.12-1.37a1,1,0,0,0-1.11.76l-1.46,6.48a1,1,0,0,0,.82,1.2l9.12,1.37A1,1,0,0,0,86.94,74.42Z"/><path class="cls-5" d="M78.41,47.67l1.46-6.48a1,1,0,0,0-.82-1.2l-9.12-1.37a1,1,0,0,0-1.11.76l-1.46,6.49a1,1,0,0,0,.82,1.2l9.12,1.36A1,1,0,0,0,78.41,47.67Z"/><path class="cls-3" d="M92.45,49.78l1.46-6.49a1,1,0,0,0-.82-1.19L84,40.73a1,1,0,0,0-1.11.76L81.4,48a1,1,0,0,0,.82,1.19l9.12,1.37A1,1,0,0,0,92.45,49.78Z"/><path class="cls-6" d="M89.69,62.17l1.46-6.48a1,1,0,0,0-.82-1.2l-9.11-1.37a1,1,0,0,0-1.12.76l-1.45,6.49a1,1,0,0,0,.82,1.2l9.11,1.36A1,1,0,0,0,89.69,62.17Z"/><path class="cls-5" d="M56,82.6l1.45-6.49a1,1,0,0,0-.82-1.2l-9.11-1.36a1,1,0,0,0-1.12.76l-1.45,6.48a1,1,0,0,0,.82,1.2l9.11,1.37A1,1,0,0,0,56,82.6Z"/><path class="cls-3" d="M70,84.7l1.46-6.48a1,1,0,0,0-.82-1.2l-9.11-1.37a1,1,0,0,0-1.12.77L59,82.9a1,1,0,0,0,.82,1.2l9.11,1.37A1,1,0,0,0,70,84.7Z"/><path class="cls-3" d="M106.49,51.89,108,45.4a1,1,0,0,0-.82-1.2L98,42.84a1,1,0,0,0-1.11.76l-1.46,6.48a1,1,0,0,0,.82,1.2l9.11,1.37A1,1,0,0,0,106.49,51.89Z"/><path class="cls-5" d="M103.73,64.28l1.46-6.49a1,1,0,0,0-.82-1.19l-9.11-1.37a1,1,0,0,0-1.12.76l-1.45,6.49a1,1,0,0,0,.82,1.19L102.62,65A1,1,0,0,0,103.73,64.28Z"/><path class="cls-3" d="M98.1,88.92l1.46-6.49a1,1,0,0,0-.82-1.19l-9.11-1.37a1,1,0,0,0-1.12.76l-1.45,6.49a1,1,0,0,0,.81,1.19L97,89.68A1,1,0,0,0,98.1,88.92Z"/><path class="cls-5" d="M84.06,86.81l1.46-6.48a1,1,0,0,0-.82-1.2l-9.11-1.37a1,1,0,0,0-1.12.76L73,85a1,1,0,0,0,.82,1.19L83,87.57A1,1,0,0,0,84.06,86.81Z"/><path class="cls-3" d="M101,76.52,102.44,70a1,1,0,0,0-.82-1.2L92.5,67.47a1,1,0,0,0-1.11.77l-1.46,6.48a1,1,0,0,0,.82,1.2l9.12,1.37A1,1,0,0,0,101,76.52Z"/><path class="cls-3" d="M16,90.19A60.38,60.38,0,0,1,26,91l4.26-18.69C24,80,20.25,81.79,16,90.19Z"/><path class="cls-7" d="M74.93,108.05c13.16,1.06,22.51-3.43,25.66-10.45-2.39,2.49-6.72,4.83-14.22,3.14C86.37,100.74,79.72,107.65,74.93,108.05Z"/><path class="cls-8" d="M72.85,18.29l27.82,4.11,3.75-16.48a2,2,0,0,0-1.68-2.46L79.46,0a2.63,2.63,0,0,0-2.9,2Z"/><path class="cls-9" d="M72.85,18.29l27.82,4.11,3.75-16.48a2,2,0,0,0-1.68-2.46L79.46,0a2.63,2.63,0,0,0-2.9,2Z"/><path class="cls-5" d="M66.85,28.12l34.92,5.16a2.78,2.78,0,0,0,3-2.08l3.26-14.35L68.37,11,65.06,25.51A2.13,2.13,0,0,0,66.85,28.12Z"/><path class="cls-10" d="M.07,13.22H9.31A20.36,20.36,0,0,1,29.67,33.58v0A20.36,20.36,0,0,1,9.31,53.95H.07a0,0,0,0,1,0,0V13.22A0,0,0,0,1,.07,13.22Z" transform="translate(34.63 64.54) rotate(171.32)"/><rect class="cls-10" x="1.87" y="11.84" width="10.71" height="9.13" rx="4.56" transform="translate(23.7 23.45) rotate(136.93)"/><path class="cls-11" d="M4,20.65a4.58,4.58,0,0,0,5.78-.37l1.15-1.08a4.55,4.55,0,0,0,1.12-5A20.22,20.22,0,0,0,4,20.65Z"/><path class="cls-4" d="M29.48,49.22a17.87,17.87,0,0,1-2.67-35.53,17.7,17.7,0,0,1,2.72-.21A18,18,0,0,1,47.16,28.65,17.89,17.89,0,0,1,29.48,49.22Z"/><path class="cls-6" d="M29.53,16A15.45,15.45,0,0,1,44.69,29,15.37,15.37,0,0,1,31.82,46.54,15.34,15.34,0,0,1,14.31,33.67,15.37,15.37,0,0,1,27.18,16.16,15.5,15.5,0,0,1,29.53,16m0-5a20.37,20.37,0,1,0,20.1,17.3A20.33,20.33,0,0,0,29.53,11Z"/><polyline class="cls-12" points="20.67 32.7 29.5 31.35 27.45 17.93"/><rect class="cls-10" x="16.86" y="4.31" width="14.49" height="5.72" rx="2.86" transform="translate(49.01 10.61) rotate(171.32)"/></g></g></svg>